<svg width="1920" height="650" viewBox="0 0 1920 650" fill="none" xmlns="http://www.w3.org/2000/svg">
<path opacity="0.05" d="M0 556.641C320 -48.2533 640 -125.665 960 324.405C1280 774.475 1600 851.887 1920 556.641" stroke="url(#paint0_linear_2_497)" stroke-width="2.70042" stroke-linecap="round"/>
<path opacity="0.09" d="M0 526.937C320 -58.1548 640 -125.665 960 324.405C1280 774.475 1600 841.986 1920 526.937" stroke="url(#paint1_linear_2_497)" stroke-width="2.70042" stroke-linecap="round"/>
<path opacity="0.13" d="M0 497.232C320 -68.0563 640 -125.665 960 324.405C1280 774.475 1600 832.084 1920 497.232" stroke="url(#paint2_linear_2_497)" stroke-width="2.70042" stroke-linecap="round"/>
<path opacity="0.16" d="M0 467.527C320 -77.9578 640 -125.665 960 324.405C1280 774.475 1600 822.183 1920 467.527" stroke="url(#paint3_linear_2_497)" stroke-width="2.70042" stroke-linecap="round"/>
<path opacity="0.2" d="M0 437.823C320 -87.8594 640 -125.665 960 324.405C1280 774.475 1600 812.281 1920 437.823" stroke="url(#paint4_linear_2_497)" stroke-width="2.70042" stroke-linecap="round"/>
<path opacity="0.24" d="M0 408.118C320 -97.7609 640 -125.665 960 324.405C1280 774.475 1600 802.38 1920 408.118" stroke="url(#paint5_linear_2_497)" stroke-width="2.70042" stroke-linecap="round"/>
<path opacity="0.28" d="M0 378.413C320 -107.662 640 -125.665 960 324.405C1280 774.475 1600 792.478 1920 378.413" stroke="url(#paint6_linear_2_497)" stroke-width="2.70042" stroke-linecap="round"/>
<path opacity="0.32" d="M0 348.709C320 -117.564 640 -125.665 960 324.405C1280 774.475 1600 782.577 1920 348.709" stroke="url(#paint7_linear_2_497)" stroke-width="2.70042" stroke-linecap="round"/>
<path opacity="0.35" d="M0 319.004C320 -127.466 640 -125.665 960 324.405C1280 774.475 1600 772.675 1920 319.004" stroke="url(#paint8_linear_2_497)" stroke-width="2.70042" stroke-linecap="round"/>
<path opacity="0.39" d="M0 289.299C320 -137.367 640 -125.665 960 324.405C1280 774.475 1600 762.773 1920 289.299" stroke="url(#paint9_linear_2_497)" stroke-width="2.70042" stroke-linecap="round"/>
<path opacity="0.43" d="M0 259.595C320 -147.269 640 -125.665 960 324.405C1280 774.475 1600 752.872 1920 259.595" stroke="url(#paint10_linear_2_497)" stroke-width="2.70042" stroke-linecap="round"/>
<path opacity="0.47" d="M0 229.89C320 -157.17 640 -125.665 960 324.405C1280 774.475 1600 742.97 1920 229.89" stroke="url(#paint11_linear_2_497)" stroke-width="2.70042" stroke-linecap="round"/>
<path opacity="0.51" d="M0 200.186C320 -167.072 640 -125.665 960 324.405C1280 774.475 1600 733.069 1920 200.186" stroke="url(#paint12_linear_2_497)" stroke-width="2.70042" stroke-linecap="round"/>
<path opacity="0.54" d="M0 170.481C320 -176.973 640 -125.665 960 324.405C1280 774.475 1600 723.167 1920 170.481" stroke="url(#paint13_linear_2_497)" stroke-width="2.70042" stroke-linecap="round"/>
<path opacity="0.58" d="M0 140.776C320 -186.875 640 -125.665 960 324.405C1280 774.475 1600 713.266 1920 140.776" stroke="url(#paint14_linear_2_497)" stroke-width="2.70042" stroke-linecap="round"/>
<path opacity="0.62" d="M0 111.072C320 -196.776 640 -125.665 960 324.405C1280 774.475 1600 703.364 1920 111.072" stroke="url(#paint15_linear_2_497)" stroke-width="2.70042" stroke-linecap="round"/>
<path opacity="0.66" d="M0 81.367C320 -206.678 640 -125.665 960 324.405C1280 774.475 1600 693.463 1920 81.367" stroke="url(#paint16_linear_2_497)" stroke-width="2.70042" stroke-linecap="round"/>
<path opacity="0.7" d="M0 51.6624C320 -216.58 640 -125.665 960 324.405C1280 774.475 1600 683.561 1920 51.6624" stroke="url(#paint17_linear_2_497)" stroke-width="2.70042" stroke-linecap="round"/>
<path opacity="0.73" d="M0 21.9578C320 -226.481 640 -125.665 960 324.405C1280 774.475 1600 673.66 1920 21.9578" stroke="url(#paint18_linear_2_497)" stroke-width="2.70042" stroke-linecap="round"/>
<path opacity="0.77" d="M0 -7.74692C320 -236.383 640 -125.665 960 324.405C1280 774.475 1600 663.758 1920 -7.74692" stroke="url(#paint19_linear_2_497)" stroke-width="2.70042" stroke-linecap="round"/>
<path opacity="0.81" d="M0 -37.4516C320 -246.284 640 -125.665 960 324.405C1280 774.475 1600 653.856 1920 -37.4516" stroke="url(#paint20_linear_2_497)" stroke-width="2.70042" stroke-linecap="round"/>
<path opacity="0.85" d="M0 -67.1562C320 -256.186 640 -125.665 960 324.405C1280 774.475 1600 643.955 1920 -67.1562" stroke="url(#paint21_linear_2_497)" stroke-width="2.70042" stroke-linecap="round"/>
<path opacity="0.89" d="M0 -96.8608C320 -266.087 640 -125.665 960 324.405C1280 774.475 1600 634.053 1920 -96.8608" stroke="url(#paint22_linear_2_497)" stroke-width="2.70042" stroke-linecap="round"/>
<path opacity="0.92" d="M0 -126.565C320 -275.989 640 -125.665 960 324.405C1280 774.475 1600 624.152 1920 -126.565" stroke="url(#paint23_linear_2_497)" stroke-width="2.70042" stroke-linecap="round"/>
<path opacity="0.96" d="M0 -156.27C320 -285.89 640 -125.665 960 324.405C1280 774.475 1600 614.25 1920 -156.27" stroke="url(#paint24_linear_2_497)" stroke-width="2.70042" stroke-linecap="round"/>
<defs>
<linearGradient id="paint0_linear_2_497" x1="96000" y1="36.3907" x2="96000" y2="69605.1" gradientUnits="userSpaceOnUse">
<stop stop-color="#FFF000"/>
<stop offset="1"/>
</linearGradient>
<linearGradient id="paint1_linear_2_497" x1="96000" y1="30.8809" x2="96000" y2="69095.4" gradientUnits="userSpaceOnUse">
<stop stop-color="#FFF000"/>
<stop offset="1"/>
</linearGradient>
<linearGradient id="paint2_linear_2_497" x1="96000" y1="25.1561" x2="96000" y2="68660.2" gradientUnits="userSpaceOnUse">
<stop stop-color="#FFF000"/>
<stop offset="1"/>
</linearGradient>
<linearGradient id="paint3_linear_2_497" x1="96000" y1="19.2036" x2="96000" y2="68296.9" gradientUnits="userSpaceOnUse">
<stop stop-color="#FFF000"/>
<stop offset="1"/>
</linearGradient>
<linearGradient id="paint4_linear_2_497" x1="96000" y1="13.0095" x2="96000" y2="68003.3" gradientUnits="userSpaceOnUse">
<stop stop-color="#FFF000"/>
<stop offset="1"/>
</linearGradient>
<linearGradient id="paint5_linear_2_497" x1="96000" y1="6.55872" x2="96000" y2="67777.6" gradientUnits="userSpaceOnUse">
<stop stop-color="#FFF000"/>
<stop offset="1"/>
</linearGradient>
<linearGradient id="paint6_linear_2_497" x1="96000" y1="-0.164917" x2="96000" y2="67618.6" gradientUnits="userSpaceOnUse">
<stop stop-color="#FFF000"/>
<stop offset="1"/>
</linearGradient>
<linearGradient id="paint7_linear_2_497" x1="96000" y1="-7.17926" x2="96000" y2="67525.3" gradientUnits="userSpaceOnUse">
<stop stop-color="#FFF000"/>
<stop offset="1"/>
</linearGradient>
<linearGradient id="paint8_linear_2_497" x1="96000" y1="-14.5034" x2="96000" y2="67497.1" gradientUnits="userSpaceOnUse">
<stop stop-color="#FFF000"/>
<stop offset="1"/>
</linearGradient>
<linearGradient id="paint9_linear_2_497" x1="96000" y1="-22.1584" x2="96000" y2="67534.1" gradientUnits="userSpaceOnUse">
<stop stop-color="#FFF000"/>
<stop offset="1"/>
</linearGradient>
<linearGradient id="paint10_linear_2_497" x1="96000" y1="-30.1672" x2="96000" y2="67636.3" gradientUnits="userSpaceOnUse">
<stop stop-color="#FFF000"/>
<stop offset="1"/>
</linearGradient>
<linearGradient id="paint11_linear_2_497" x1="96000" y1="-38.5549" x2="96000" y2="67804.4" gradientUnits="userSpaceOnUse">
<stop stop-color="#FFF000"/>
<stop offset="1"/>
</linearGradient>
<linearGradient id="paint12_linear_2_497" x1="96000" y1="-47.3491" x2="96000" y2="68039.5" gradientUnits="userSpaceOnUse">
<stop stop-color="#FFF000"/>
<stop offset="1"/>
</linearGradient>
<linearGradient id="paint13_linear_2_497" x1="96000" y1="-56.5801" x2="96000" y2="68342.9" gradientUnits="userSpaceOnUse">
<stop stop-color="#FFF000"/>
<stop offset="1"/>
</linearGradient>
<linearGradient id="paint14_linear_2_497" x1="96000" y1="-66.2811" x2="96000" y2="68716.5" gradientUnits="userSpaceOnUse">
<stop stop-color="#FFF000"/>
<stop offset="1"/>
</linearGradient>
<linearGradient id="paint15_linear_2_497" x1="96000" y1="-76.489" x2="96000" y2="69162.5" gradientUnits="userSpaceOnUse">
<stop stop-color="#FFF000"/>
<stop offset="1"/>
</linearGradient>
<linearGradient id="paint16_linear_2_497" x1="96000" y1="-87.2447" x2="96000" y2="69683.9" gradientUnits="userSpaceOnUse">
<stop stop-color="#FFF000"/>
<stop offset="1"/>
</linearGradient>
<linearGradient id="paint17_linear_2_497" x1="96000" y1="-98.5934" x2="96000" y2="70283.8" gradientUnits="userSpaceOnUse">
<stop stop-color="#FFF000"/>
<stop offset="1"/>
</linearGradient>
<linearGradient id="paint18_linear_2_497" x1="96000" y1="-110.586" x2="96000" y2="70966.3" gradientUnits="userSpaceOnUse">
<stop stop-color="#FFF000"/>
<stop offset="1"/>
</linearGradient>
<linearGradient id="paint19_linear_2_497" x1="96000" y1="-123.278" x2="96000" y2="71735.9" gradientUnits="userSpaceOnUse">
<stop stop-color="#FFF000"/>
<stop offset="1"/>
</linearGradient>
<linearGradient id="paint20_linear_2_497" x1="96000" y1="-136.733" x2="96000" y2="72597.9" gradientUnits="userSpaceOnUse">
<stop stop-color="#FFF000"/>
<stop offset="1"/>
</linearGradient>
<linearGradient id="paint21_linear_2_497" x1="96000" y1="-151.021" x2="96000" y2="73558.5" gradientUnits="userSpaceOnUse">
<stop stop-color="#FFF000"/>
<stop offset="1"/>
</linearGradient>
<linearGradient id="paint22_linear_2_497" x1="96000" y1="-166.224" x2="96000" y2="74624.8" gradientUnits="userSpaceOnUse">
<stop stop-color="#FFF000"/>
<stop offset="1"/>
</linearGradient>
<linearGradient id="paint23_linear_2_497" x1="96000" y1="-182.431" x2="96000" y2="75805" gradientUnits="userSpaceOnUse">
<stop stop-color="#FFF000"/>
<stop offset="1"/>
</linearGradient>
<linearGradient id="paint24_linear_2_497" x1="96000" y1="-199.745" x2="96000" y2="77108.6" gradientUnits="userSpaceOnUse">
<stop stop-color="#FFF000"/>
<stop offset="1"/>
</linearGradient>
</defs>
</svg>
