<svg width="1920" height="679" viewBox="0 0 1920 679" fill="none" xmlns="http://www.w3.org/2000/svg">
<path opacity="0.05" d="M0 -49.8607L75.6118 25.7511" stroke="#FFF000" stroke-width="1.35021" stroke-linecap="square"/>
<path opacity="0.09" d="M151.224 -49.8607L75.6118 25.7511" stroke="#FFF000" stroke-width="1.35021" stroke-linecap="square"/>
<path opacity="0.12" d="M226.835 -49.8607L151.224 25.7511" stroke="#FFF000" stroke-width="1.35021" stroke-linecap="square"/>
<path opacity="0.16" d="M302.447 -49.8607L226.835 25.7511" stroke="#FFF000" stroke-width="1.35021" stroke-linecap="square"/>
<path opacity="0.2" d="M378.059 -49.8607L302.447 25.7511" stroke="#FFF000" stroke-width="1.35021" stroke-linecap="square"/>
<path opacity="0.24" d="M378.059 -49.8607L453.671 25.7511" stroke="#FFF000" stroke-width="1.35021" stroke-linecap="square"/>
<path opacity="0.27" d="M529.283 -49.8607L453.671 25.7511" stroke="#FFF000" stroke-width="1.35021" stroke-linecap="square"/>
<path opacity="0.31" d="M604.895 -49.8607L529.283 25.7511" stroke="#FFF000" stroke-width="1.35021" stroke-linecap="square"/>
<path opacity="0.35" d="M680.506 -49.8607L604.895 25.7511" stroke="#FFF000" stroke-width="1.35021" stroke-linecap="square"/>
<path opacity="0.39" d="M680.506 -49.8607L756.118 25.7511" stroke="#FFF000" stroke-width="1.35021" stroke-linecap="square"/>
<path opacity="0.42" d="M831.73 -49.8607L756.118 25.7511" stroke="#FFF000" stroke-width="1.35021" stroke-linecap="square"/>
<path opacity="0.46" d="M907.342 -49.8607L831.73 25.7511" stroke="#FFF000" stroke-width="1.35021" stroke-linecap="square"/>
<path opacity="0.5" d="M982.954 -49.8607L907.342 25.7511" stroke="#FFF000" stroke-width="1.35021" stroke-linecap="square"/>
<path opacity="0.54" d="M982.954 -49.8607L1058.57 25.7511" stroke="#FFF000" stroke-width="1.35021" stroke-linecap="square"/>
<path opacity="0.57" d="M1058.57 -49.8607L1134.18 25.7511" stroke="#FFF000" stroke-width="1.35021" stroke-linecap="square"/>
<path opacity="0.61" d="M1134.18 -49.8607L1209.79 25.7511" stroke="#FFF000" stroke-width="1.35021" stroke-linecap="square"/>
<path opacity="0.65" d="M1209.79 -49.8607L1285.4 25.7511" stroke="#FFF000" stroke-width="1.35021" stroke-linecap="square"/>
<path opacity="0.69" d="M1361.01 -49.8607L1285.4 25.7511" stroke="#FFF000" stroke-width="1.35021" stroke-linecap="square"/>
<path opacity="0.72" d="M1361.01 -49.8607L1436.62 25.7511" stroke="#FFF000" stroke-width="1.35021" stroke-linecap="square"/>
<path opacity="0.76" d="M1436.62 -49.8607L1512.24 25.7511" stroke="#FFF000" stroke-width="1.35021" stroke-linecap="square"/>
<path opacity="0.8" d="M1512.24 -49.8607L1587.85 25.7511" stroke="#FFF000" stroke-width="1.35021" stroke-linecap="square"/>
<path opacity="0.84" d="M1587.85 -49.8607L1663.46 25.7511" stroke="#FFF000" stroke-width="1.35021" stroke-linecap="square"/>
<path opacity="0.87" d="M1739.07 -49.8607L1663.46 25.7511" stroke="#FFF000" stroke-width="1.35021" stroke-linecap="square"/>
<path opacity="0.91" d="M1739.07 -49.8607L1814.68 25.7511" stroke="#FFF000" stroke-width="1.35021" stroke-linecap="square"/>
<path opacity="0.95" d="M1814.68 -49.8607L1890.3 25.7511" stroke="#FFF000" stroke-width="1.35021" stroke-linecap="square"/>
<path opacity="0.99" d="M1890.3 -49.8607L1965.91 25.7511" stroke="#FFF000" stroke-width="1.35021" stroke-linecap="square"/>
<path opacity="0.05" d="M75.6118 25.7511L0 101.363" stroke="#FFF000" stroke-width="1.35021" stroke-linecap="square"/>
<path opacity="0.09" d="M75.6118 25.7511L151.224 101.363" stroke="#FFF000" stroke-width="1.35021" stroke-linecap="square"/>
<path opacity="0.12" d="M226.835 25.7511L151.224 101.363" stroke="#FFF000" stroke-width="1.35021" stroke-linecap="square"/>
<path opacity="0.16" d="M226.835 25.7511L302.447 101.363" stroke="#FFF000" stroke-width="1.35021" stroke-linecap="square"/>
<path opacity="0.2" d="M378.059 25.7511L302.447 101.363" stroke="#FFF000" stroke-width="1.35021" stroke-linecap="square"/>
<path opacity="0.24" d="M378.059 25.7511L453.671 101.363" stroke="#FFF000" stroke-width="1.35021" stroke-linecap="square"/>
<path opacity="0.27" d="M529.283 25.7511L453.671 101.363" stroke="#FFF000" stroke-width="1.35021" stroke-linecap="square"/>
<path opacity="0.31" d="M604.895 25.7511L529.283 101.363" stroke="#FFF000" stroke-width="1.35021" stroke-linecap="square"/>
<path opacity="0.35" d="M680.506 25.7511L604.895 101.363" stroke="#FFF000" stroke-width="1.35021" stroke-linecap="square"/>
<path opacity="0.39" d="M680.506 25.7511L756.118 101.363" stroke="#FFF000" stroke-width="1.35021" stroke-linecap="square"/>
<path opacity="0.42" d="M831.73 25.7511L756.118 101.363" stroke="#FFF000" stroke-width="1.35021" stroke-linecap="square"/>
<path opacity="0.46" d="M831.73 25.7511L907.342 101.363" stroke="#FFF000" stroke-width="1.35021" stroke-linecap="square"/>
<path opacity="0.5" d="M982.954 25.7511L907.342 101.363" stroke="#FFF000" stroke-width="1.35021" stroke-linecap="square"/>
<path opacity="0.54" d="M1058.57 25.7511L982.954 101.363" stroke="#FFF000" stroke-width="1.35021" stroke-linecap="square"/>
<path opacity="0.57" d="M1058.57 25.7511L1134.18 101.363" stroke="#FFF000" stroke-width="1.35021" stroke-linecap="square"/>
<path opacity="0.61" d="M1134.18 25.7511L1209.79 101.363" stroke="#FFF000" stroke-width="1.35021" stroke-linecap="square"/>
<path opacity="0.65" d="M1285.4 25.7511L1209.79 101.363" stroke="#FFF000" stroke-width="1.35021" stroke-linecap="square"/>
<path opacity="0.69" d="M1285.4 25.7511L1361.01 101.363" stroke="#FFF000" stroke-width="1.35021" stroke-linecap="square"/>
<path opacity="0.72" d="M1436.62 25.7511L1361.01 101.363" stroke="#FFF000" stroke-width="1.35021" stroke-linecap="square"/>
<path opacity="0.76" d="M1512.24 25.7511L1436.62 101.363" stroke="#FFF000" stroke-width="1.35021" stroke-linecap="square"/>
<path opacity="0.8" d="M1512.24 25.7511L1587.85 101.363" stroke="#FFF000" stroke-width="1.35021" stroke-linecap="square"/>
<path opacity="0.84" d="M1663.46 25.7511L1587.85 101.363" stroke="#FFF000" stroke-width="1.35021" stroke-linecap="square"/>
<path opacity="0.87" d="M1663.46 25.7511L1739.07 101.363" stroke="#FFF000" stroke-width="1.35021" stroke-linecap="square"/>
<path opacity="0.91" d="M1739.07 25.7511L1814.68 101.363" stroke="#FFF000" stroke-width="1.35021" stroke-linecap="square"/>
<path opacity="0.95" d="M1814.68 25.7511L1890.3 101.363" stroke="#FFF000" stroke-width="1.35021" stroke-linecap="square"/>
<path opacity="0.99" d="M1965.91 25.7511L1890.3 101.363" stroke="#FFF000" stroke-width="1.35021" stroke-linecap="square"/>
<path opacity="0.05" d="M75.6118 101.363L0 176.975" stroke="#FFF000" stroke-width="1.35021" stroke-linecap="square"/>
<path opacity="0.09" d="M151.224 101.363L75.6118 176.975" stroke="#FFF000" stroke-width="1.35021" stroke-linecap="square"/>
<path opacity="0.12" d="M226.835 101.363L151.224 176.975" stroke="#FFF000" stroke-width="1.35021" stroke-linecap="square"/>
<path opacity="0.16" d="M302.447 101.363L226.835 176.975" stroke="#FFF000" stroke-width="1.35021" stroke-linecap="square"/>
<path opacity="0.2" d="M378.059 101.363L302.447 176.975" stroke="#FFF000" stroke-width="1.35021" stroke-linecap="square"/>
<path opacity="0.24" d="M453.671 101.363L378.059 176.975" stroke="#FFF000" stroke-width="1.35021" stroke-linecap="square"/>
<path opacity="0.27" d="M453.671 101.363L529.283 176.975" stroke="#FFF000" stroke-width="1.35021" stroke-linecap="square"/>
<path opacity="0.31" d="M604.895 101.363L529.283 176.975" stroke="#FFF000" stroke-width="1.35021" stroke-linecap="square"/>
<path opacity="0.35" d="M604.895 101.363L680.506 176.975" stroke="#FFF000" stroke-width="1.35021" stroke-linecap="square"/>
<path opacity="0.39" d="M756.118 101.363L680.506 176.975" stroke="#FFF000" stroke-width="1.35021" stroke-linecap="square"/>
<path opacity="0.42" d="M831.73 101.363L756.118 176.975" stroke="#FFF000" stroke-width="1.35021" stroke-linecap="square"/>
<path opacity="0.46" d="M907.342 101.363L831.73 176.975" stroke="#FFF000" stroke-width="1.35021" stroke-linecap="square"/>
<path opacity="0.5" d="M982.954 101.363L907.342 176.975" stroke="#FFF000" stroke-width="1.35021" stroke-linecap="square"/>
<path opacity="0.54" d="M1058.57 101.363L982.954 176.975" stroke="#FFF000" stroke-width="1.35021" stroke-linecap="square"/>
<path opacity="0.57" d="M1058.57 101.363L1134.18 176.975" stroke="#FFF000" stroke-width="1.35021" stroke-linecap="square"/>
<path opacity="0.61" d="M1209.79 101.363L1134.18 176.975" stroke="#FFF000" stroke-width="1.35021" stroke-linecap="square"/>
<path opacity="0.65" d="M1209.79 101.363L1285.4 176.975" stroke="#FFF000" stroke-width="1.35021" stroke-linecap="square"/>
<path opacity="0.69" d="M1361.01 101.363L1285.4 176.975" stroke="#FFF000" stroke-width="1.35021" stroke-linecap="square"/>
<path opacity="0.72" d="M1361.01 101.363L1436.62 176.975" stroke="#FFF000" stroke-width="1.35021" stroke-linecap="square"/>
<path opacity="0.76" d="M1436.62 101.363L1512.24 176.975" stroke="#FFF000" stroke-width="1.35021" stroke-linecap="square"/>
<path opacity="0.8" d="M1587.85 101.363L1512.24 176.975" stroke="#FFF000" stroke-width="1.35021" stroke-linecap="square"/>
<path opacity="0.84" d="M1663.46 101.363L1587.85 176.975" stroke="#FFF000" stroke-width="1.35021" stroke-linecap="square"/>
<path opacity="0.87" d="M1739.07 101.363L1663.46 176.975" stroke="#FFF000" stroke-width="1.35021" stroke-linecap="square"/>
<path opacity="0.91" d="M1814.68 101.363L1739.07 176.975" stroke="#FFF000" stroke-width="1.35021" stroke-linecap="square"/>
<path opacity="0.95" d="M1814.68 101.363L1890.3 176.975" stroke="#FFF000" stroke-width="1.35021" stroke-linecap="square"/>
<path opacity="0.99" d="M1890.3 101.363L1965.91 176.975" stroke="#FFF000" stroke-width="1.35021" stroke-linecap="square"/>
<path opacity="0.05" d="M0 176.975L75.6118 252.587" stroke="#FFF000" stroke-width="1.35021" stroke-linecap="square"/>
<path opacity="0.09" d="M151.224 176.975L75.6118 252.587" stroke="#FFF000" stroke-width="1.35021" stroke-linecap="square"/>
<path opacity="0.12" d="M226.835 176.975L151.224 252.587" stroke="#FFF000" stroke-width="1.35021" stroke-linecap="square"/>
<path opacity="0.16" d="M302.447 176.975L226.835 252.587" stroke="#FFF000" stroke-width="1.35021" stroke-linecap="square"/>
<path opacity="0.2" d="M302.447 176.975L378.059 252.587" stroke="#FFF000" stroke-width="1.35021" stroke-linecap="square"/>
<path opacity="0.24" d="M453.671 176.975L378.059 252.587" stroke="#FFF000" stroke-width="1.35021" stroke-linecap="square"/>
<path opacity="0.27" d="M529.283 176.975L453.671 252.587" stroke="#FFF000" stroke-width="1.35021" stroke-linecap="square"/>
<path opacity="0.31" d="M604.895 176.975L529.283 252.587" stroke="#FFF000" stroke-width="1.35021" stroke-linecap="square"/>
<path opacity="0.35" d="M604.895 176.975L680.506 252.587" stroke="#FFF000" stroke-width="1.35021" stroke-linecap="square"/>
<path opacity="0.39" d="M756.118 176.975L680.506 252.587" stroke="#FFF000" stroke-width="1.35021" stroke-linecap="square"/>
<path opacity="0.42" d="M831.73 176.975L756.118 252.587" stroke="#FFF000" stroke-width="1.35021" stroke-linecap="square"/>
<path opacity="0.46" d="M907.342 176.975L831.73 252.587" stroke="#FFF000" stroke-width="1.35021" stroke-linecap="square"/>
<path opacity="0.5" d="M982.954 176.975L907.342 252.587" stroke="#FFF000" stroke-width="1.35021" stroke-linecap="square"/>
<path opacity="0.54" d="M982.954 176.975L1058.57 252.587" stroke="#FFF000" stroke-width="1.35021" stroke-linecap="square"/>
<path opacity="0.57" d="M1134.18 176.975L1058.57 252.587" stroke="#FFF000" stroke-width="1.35021" stroke-linecap="square"/>
<path opacity="0.61" d="M1134.18 176.975L1209.79 252.587" stroke="#FFF000" stroke-width="1.35021" stroke-linecap="square"/>
<path opacity="0.65" d="M1285.4 176.975L1209.79 252.587" stroke="#FFF000" stroke-width="1.35021" stroke-linecap="square"/>
<path opacity="0.69" d="M1285.4 176.975L1361.01 252.587" stroke="#FFF000" stroke-width="1.35021" stroke-linecap="square"/>
<path opacity="0.72" d="M1361.01 176.975L1436.62 252.587" stroke="#FFF000" stroke-width="1.35021" stroke-linecap="square"/>
<path opacity="0.76" d="M1512.24 176.975L1436.62 252.587" stroke="#FFF000" stroke-width="1.35021" stroke-linecap="square"/>
<path opacity="0.8" d="M1512.24 176.975L1587.85 252.587" stroke="#FFF000" stroke-width="1.35021" stroke-linecap="square"/>
<path opacity="0.84" d="M1663.46 176.975L1587.85 252.587" stroke="#FFF000" stroke-width="1.35021" stroke-linecap="square"/>
<path opacity="0.87" d="M1739.07 176.975L1663.46 252.587" stroke="#FFF000" stroke-width="1.35021" stroke-linecap="square"/>
<path opacity="0.91" d="M1739.07 176.975L1814.68 252.587" stroke="#FFF000" stroke-width="1.35021" stroke-linecap="square"/>
<path opacity="0.95" d="M1814.68 176.975L1890.3 252.587" stroke="#FFF000" stroke-width="1.35021" stroke-linecap="square"/>
<path opacity="0.99" d="M1890.3 176.975L1965.91 252.587" stroke="#FFF000" stroke-width="1.35021" stroke-linecap="square"/>
<path opacity="0.05" d="M0 252.587L75.6118 328.198" stroke="#FFF000" stroke-width="1.35021" stroke-linecap="square"/>
<path opacity="0.09" d="M75.6118 252.587L151.224 328.198" stroke="#FFF000" stroke-width="1.35021" stroke-linecap="square"/>
<path opacity="0.12" d="M151.224 252.587L226.835 328.198" stroke="#FFF000" stroke-width="1.35021" stroke-linecap="square"/>
<path opacity="0.16" d="M226.835 252.587L302.447 328.198" stroke="#FFF000" stroke-width="1.35021" stroke-linecap="square"/>
<path opacity="0.2" d="M378.059 252.587L302.447 328.198" stroke="#FFF000" stroke-width="1.35021" stroke-linecap="square"/>
<path opacity="0.24" d="M378.059 252.587L453.671 328.198" stroke="#FFF000" stroke-width="1.35021" stroke-linecap="square"/>
<path opacity="0.27" d="M529.283 252.587L453.671 328.198" stroke="#FFF000" stroke-width="1.35021" stroke-linecap="square"/>
<path opacity="0.31" d="M529.283 252.587L604.895 328.198" stroke="#FFF000" stroke-width="1.35021" stroke-linecap="square"/>
<path opacity="0.35" d="M604.895 252.587L680.506 328.198" stroke="#FFF000" stroke-width="1.35021" stroke-linecap="square"/>
<path opacity="0.39" d="M756.118 252.587L680.506 328.198" stroke="#FFF000" stroke-width="1.35021" stroke-linecap="square"/>
<path opacity="0.42" d="M831.73 252.587L756.118 328.198" stroke="#FFF000" stroke-width="1.35021" stroke-linecap="square"/>
<path opacity="0.46" d="M831.73 252.587L907.342 328.198" stroke="#FFF000" stroke-width="1.35021" stroke-linecap="square"/>
<path opacity="0.5" d="M907.342 252.587L982.954 328.198" stroke="#FFF000" stroke-width="1.35021" stroke-linecap="square"/>
<path opacity="0.54" d="M1058.57 252.587L982.954 328.198" stroke="#FFF000" stroke-width="1.35021" stroke-linecap="square"/>
<path opacity="0.57" d="M1058.57 252.587L1134.18 328.198" stroke="#FFF000" stroke-width="1.35021" stroke-linecap="square"/>
<path opacity="0.61" d="M1134.18 252.587L1209.79 328.198" stroke="#FFF000" stroke-width="1.35021" stroke-linecap="square"/>
<path opacity="0.65" d="M1285.4 252.587L1209.79 328.198" stroke="#FFF000" stroke-width="1.35021" stroke-linecap="square"/>
<path opacity="0.69" d="M1361.01 252.587L1285.4 328.198" stroke="#FFF000" stroke-width="1.35021" stroke-linecap="square"/>
<path opacity="0.72" d="M1361.01 252.587L1436.62 328.198" stroke="#FFF000" stroke-width="1.35021" stroke-linecap="square"/>
<path opacity="0.76" d="M1436.62 252.587L1512.24 328.198" stroke="#FFF000" stroke-width="1.35021" stroke-linecap="square"/>
<path opacity="0.8" d="M1512.24 252.587L1587.85 328.198" stroke="#FFF000" stroke-width="1.35021" stroke-linecap="square"/>
<path opacity="0.84" d="M1663.46 252.587L1587.85 328.198" stroke="#FFF000" stroke-width="1.35021" stroke-linecap="square"/>
<path opacity="0.87" d="M1739.07 252.587L1663.46 328.198" stroke="#FFF000" stroke-width="1.35021" stroke-linecap="square"/>
<path opacity="0.91" d="M1814.68 252.587L1739.07 328.198" stroke="#FFF000" stroke-width="1.35021" stroke-linecap="square"/>
<path opacity="0.95" d="M1814.68 252.587L1890.3 328.198" stroke="#FFF000" stroke-width="1.35021" stroke-linecap="square"/>
<path opacity="0.99" d="M1890.3 252.587L1965.91 328.198" stroke="#FFF000" stroke-width="1.35021" stroke-linecap="square"/>
<path opacity="0.05" d="M0 328.198L75.6118 403.81" stroke="#FFF000" stroke-width="1.35021" stroke-linecap="square"/>
<path opacity="0.09" d="M151.224 328.198L75.6118 403.81" stroke="#FFF000" stroke-width="1.35021" stroke-linecap="square"/>
<path opacity="0.12" d="M151.224 328.198L226.835 403.81" stroke="#FFF000" stroke-width="1.35021" stroke-linecap="square"/>
<path opacity="0.16" d="M226.835 328.198L302.447 403.81" stroke="#FFF000" stroke-width="1.35021" stroke-linecap="square"/>
<path opacity="0.2" d="M378.059 328.198L302.447 403.81" stroke="#FFF000" stroke-width="1.35021" stroke-linecap="square"/>
<path opacity="0.24" d="M453.671 328.198L378.059 403.81" stroke="#FFF000" stroke-width="1.35021" stroke-linecap="square"/>
<path opacity="0.27" d="M453.671 328.198L529.283 403.81" stroke="#FFF000" stroke-width="1.35021" stroke-linecap="square"/>
<path opacity="0.31" d="M529.283 328.198L604.895 403.81" stroke="#FFF000" stroke-width="1.35021" stroke-linecap="square"/>
<path opacity="0.35" d="M680.506 328.198L604.895 403.81" stroke="#FFF000" stroke-width="1.35021" stroke-linecap="square"/>
<path opacity="0.39" d="M756.118 328.198L680.506 403.81" stroke="#FFF000" stroke-width="1.35021" stroke-linecap="square"/>
<path opacity="0.42" d="M831.73 328.198L756.118 403.81" stroke="#FFF000" stroke-width="1.35021" stroke-linecap="square"/>
<path opacity="0.46" d="M831.73 328.198L907.342 403.81" stroke="#FFF000" stroke-width="1.35021" stroke-linecap="square"/>
<path opacity="0.5" d="M982.954 328.198L907.342 403.81" stroke="#FFF000" stroke-width="1.35021" stroke-linecap="square"/>
<path opacity="0.54" d="M982.954 328.198L1058.57 403.81" stroke="#FFF000" stroke-width="1.35021" stroke-linecap="square"/>
<path opacity="0.57" d="M1134.18 328.198L1058.57 403.81" stroke="#FFF000" stroke-width="1.35021" stroke-linecap="square"/>
<path opacity="0.61" d="M1209.79 328.198L1134.18 403.81" stroke="#FFF000" stroke-width="1.35021" stroke-linecap="square"/>
<path opacity="0.65" d="M1209.79 328.198L1285.4 403.81" stroke="#FFF000" stroke-width="1.35021" stroke-linecap="square"/>
<path opacity="0.69" d="M1361.01 328.198L1285.4 403.81" stroke="#FFF000" stroke-width="1.35021" stroke-linecap="square"/>
<path opacity="0.72" d="M1361.01 328.198L1436.62 403.81" stroke="#FFF000" stroke-width="1.35021" stroke-linecap="square"/>
<path opacity="0.76" d="M1512.24 328.198L1436.62 403.81" stroke="#FFF000" stroke-width="1.35021" stroke-linecap="square"/>
<path opacity="0.8" d="M1587.85 328.198L1512.24 403.81" stroke="#FFF000" stroke-width="1.35021" stroke-linecap="square"/>
<path opacity="0.84" d="M1663.46 328.198L1587.85 403.81" stroke="#FFF000" stroke-width="1.35021" stroke-linecap="square"/>
<path opacity="0.87" d="M1663.46 328.198L1739.07 403.81" stroke="#FFF000" stroke-width="1.35021" stroke-linecap="square"/>
<path opacity="0.91" d="M1814.68 328.198L1739.07 403.81" stroke="#FFF000" stroke-width="1.35021" stroke-linecap="square"/>
<path opacity="0.95" d="M1814.68 328.198L1890.3 403.81" stroke="#FFF000" stroke-width="1.35021" stroke-linecap="square"/>
<path opacity="0.99" d="M1890.3 328.198L1965.91 403.81" stroke="#FFF000" stroke-width="1.35021" stroke-linecap="square"/>
<path opacity="0.05" d="M75.6118 403.81L0 479.422" stroke="#FFF000" stroke-width="1.35021" stroke-linecap="square"/>
<path opacity="0.09" d="M75.6118 403.81L151.224 479.422" stroke="#FFF000" stroke-width="1.35021" stroke-linecap="square"/>
<path opacity="0.12" d="M226.835 403.81L151.224 479.422" stroke="#FFF000" stroke-width="1.35021" stroke-linecap="square"/>
<path opacity="0.16" d="M302.447 403.81L226.835 479.422" stroke="#FFF000" stroke-width="1.35021" stroke-linecap="square"/>
<path opacity="0.2" d="M302.447 403.81L378.059 479.422" stroke="#FFF000" stroke-width="1.35021" stroke-linecap="square"/>
<path opacity="0.24" d="M453.671 403.81L378.059 479.422" stroke="#FFF000" stroke-width="1.35021" stroke-linecap="square"/>
<path opacity="0.27" d="M529.283 403.81L453.671 479.422" stroke="#FFF000" stroke-width="1.35021" stroke-linecap="square"/>
<path opacity="0.31" d="M604.895 403.81L529.283 479.422" stroke="#FFF000" stroke-width="1.35021" stroke-linecap="square"/>
<path opacity="0.35" d="M680.506 403.81L604.895 479.422" stroke="#FFF000" stroke-width="1.35021" stroke-linecap="square"/>
<path opacity="0.39" d="M756.118 403.81L680.506 479.422" stroke="#FFF000" stroke-width="1.35021" stroke-linecap="square"/>
<path opacity="0.42" d="M831.73 403.81L756.118 479.422" stroke="#FFF000" stroke-width="1.35021" stroke-linecap="square"/>
<path opacity="0.46" d="M907.342 403.81L831.73 479.422" stroke="#FFF000" stroke-width="1.35021" stroke-linecap="square"/>
<path opacity="0.5" d="M907.342 403.81L982.954 479.422" stroke="#FFF000" stroke-width="1.35021" stroke-linecap="square"/>
<path opacity="0.54" d="M1058.57 403.81L982.954 479.422" stroke="#FFF000" stroke-width="1.35021" stroke-linecap="square"/>
<path opacity="0.57" d="M1134.18 403.81L1058.57 479.422" stroke="#FFF000" stroke-width="1.35021" stroke-linecap="square"/>
<path opacity="0.61" d="M1134.18 403.81L1209.79 479.422" stroke="#FFF000" stroke-width="1.35021" stroke-linecap="square"/>
<path opacity="0.65" d="M1285.4 403.81L1209.79 479.422" stroke="#FFF000" stroke-width="1.35021" stroke-linecap="square"/>
<path opacity="0.69" d="M1361.01 403.81L1285.4 479.422" stroke="#FFF000" stroke-width="1.35021" stroke-linecap="square"/>
<path opacity="0.72" d="M1436.62 403.81L1361.01 479.422" stroke="#FFF000" stroke-width="1.35021" stroke-linecap="square"/>
<path opacity="0.76" d="M1512.24 403.81L1436.62 479.422" stroke="#FFF000" stroke-width="1.35021" stroke-linecap="square"/>
<path opacity="0.8" d="M1587.85 403.81L1512.24 479.422" stroke="#FFF000" stroke-width="1.35021" stroke-linecap="square"/>
<path opacity="0.84" d="M1587.85 403.81L1663.46 479.422" stroke="#FFF000" stroke-width="1.35021" stroke-linecap="square"/>
<path opacity="0.87" d="M1739.07 403.81L1663.46 479.422" stroke="#FFF000" stroke-width="1.35021" stroke-linecap="square"/>
<path opacity="0.91" d="M1814.68 403.81L1739.07 479.422" stroke="#FFF000" stroke-width="1.35021" stroke-linecap="square"/>
<path opacity="0.95" d="M1890.3 403.81L1814.68 479.422" stroke="#FFF000" stroke-width="1.35021" stroke-linecap="square"/>
<path opacity="0.99" d="M1890.3 403.81L1965.91 479.422" stroke="#FFF000" stroke-width="1.35021" stroke-linecap="square"/>
<path opacity="0.05" d="M75.6118 479.422L0 555.034" stroke="#FFF000" stroke-width="1.35021" stroke-linecap="square"/>
<path opacity="0.09" d="M75.6118 479.422L151.224 555.034" stroke="#FFF000" stroke-width="1.35021" stroke-linecap="square"/>
<path opacity="0.12" d="M226.835 479.422L151.224 555.034" stroke="#FFF000" stroke-width="1.35021" stroke-linecap="square"/>
<path opacity="0.16" d="M302.447 479.422L226.835 555.034" stroke="#FFF000" stroke-width="1.35021" stroke-linecap="square"/>
<path opacity="0.2" d="M302.447 479.422L378.059 555.034" stroke="#FFF000" stroke-width="1.35021" stroke-linecap="square"/>
<path opacity="0.24" d="M378.059 479.422L453.671 555.034" stroke="#FFF000" stroke-width="1.35021" stroke-linecap="square"/>
<path opacity="0.27" d="M453.671 479.422L529.283 555.034" stroke="#FFF000" stroke-width="1.35021" stroke-linecap="square"/>
<path opacity="0.31" d="M529.283 479.422L604.895 555.034" stroke="#FFF000" stroke-width="1.35021" stroke-linecap="square"/>
<path opacity="0.35" d="M680.506 479.422L604.895 555.034" stroke="#FFF000" stroke-width="1.35021" stroke-linecap="square"/>
<path opacity="0.39" d="M680.506 479.422L756.118 555.034" stroke="#FFF000" stroke-width="1.35021" stroke-linecap="square"/>
<path opacity="0.42" d="M831.73 479.422L756.118 555.034" stroke="#FFF000" stroke-width="1.35021" stroke-linecap="square"/>
<path opacity="0.46" d="M907.342 479.422L831.73 555.034" stroke="#FFF000" stroke-width="1.35021" stroke-linecap="square"/>
<path opacity="0.5" d="M907.342 479.422L982.954 555.034" stroke="#FFF000" stroke-width="1.35021" stroke-linecap="square"/>
<path opacity="0.54" d="M982.954 479.422L1058.57 555.034" stroke="#FFF000" stroke-width="1.35021" stroke-linecap="square"/>
<path opacity="0.57" d="M1058.57 479.422L1134.18 555.034" stroke="#FFF000" stroke-width="1.35021" stroke-linecap="square"/>
<path opacity="0.61" d="M1209.79 479.422L1134.18 555.034" stroke="#FFF000" stroke-width="1.35021" stroke-linecap="square"/>
<path opacity="0.65" d="M1285.4 479.422L1209.79 555.034" stroke="#FFF000" stroke-width="1.35021" stroke-linecap="square"/>
<path opacity="0.69" d="M1285.4 479.422L1361.01 555.034" stroke="#FFF000" stroke-width="1.35021" stroke-linecap="square"/>
<path opacity="0.72" d="M1361.01 479.422L1436.62 555.034" stroke="#FFF000" stroke-width="1.35021" stroke-linecap="square"/>
<path opacity="0.76" d="M1436.62 479.422L1512.24 555.034" stroke="#FFF000" stroke-width="1.35021" stroke-linecap="square"/>
<path opacity="0.8" d="M1512.24 479.422L1587.85 555.034" stroke="#FFF000" stroke-width="1.35021" stroke-linecap="square"/>
<path opacity="0.84" d="M1663.46 479.422L1587.85 555.034" stroke="#FFF000" stroke-width="1.35021" stroke-linecap="square"/>
<path opacity="0.87" d="M1739.07 479.422L1663.46 555.034" stroke="#FFF000" stroke-width="1.35021" stroke-linecap="square"/>
<path opacity="0.91" d="M1814.68 479.422L1739.07 555.034" stroke="#FFF000" stroke-width="1.35021" stroke-linecap="square"/>
<path opacity="0.95" d="M1890.3 479.422L1814.68 555.034" stroke="#FFF000" stroke-width="1.35021" stroke-linecap="square"/>
<path opacity="0.99" d="M1890.3 479.422L1965.91 555.034" stroke="#FFF000" stroke-width="1.35021" stroke-linecap="square"/>
<path opacity="0.05" d="M75.6118 555.034L0 630.646" stroke="#FFF000" stroke-width="1.35021" stroke-linecap="square"/>
<path opacity="0.09" d="M75.6118 555.034L151.224 630.646" stroke="#FFF000" stroke-width="1.35021" stroke-linecap="square"/>
<path opacity="0.12" d="M151.224 555.034L226.835 630.646" stroke="#FFF000" stroke-width="1.35021" stroke-linecap="square"/>
<path opacity="0.16" d="M302.447 555.034L226.835 630.646" stroke="#FFF000" stroke-width="1.35021" stroke-linecap="square"/>
<path opacity="0.2" d="M302.447 555.034L378.059 630.646" stroke="#FFF000" stroke-width="1.35021" stroke-linecap="square"/>
<path opacity="0.24" d="M378.059 555.034L453.671 630.646" stroke="#FFF000" stroke-width="1.35021" stroke-linecap="square"/>
<path opacity="0.27" d="M453.671 555.034L529.283 630.646" stroke="#FFF000" stroke-width="1.35021" stroke-linecap="square"/>
<path opacity="0.31" d="M604.895 555.034L529.283 630.646" stroke="#FFF000" stroke-width="1.35021" stroke-linecap="square"/>
<path opacity="0.35" d="M680.506 555.034L604.895 630.646" stroke="#FFF000" stroke-width="1.35021" stroke-linecap="square"/>
<path opacity="0.39" d="M756.118 555.034L680.506 630.646" stroke="#FFF000" stroke-width="1.35021" stroke-linecap="square"/>
<path opacity="0.42" d="M831.73 555.034L756.118 630.646" stroke="#FFF000" stroke-width="1.35021" stroke-linecap="square"/>
<path opacity="0.46" d="M907.342 555.034L831.73 630.646" stroke="#FFF000" stroke-width="1.35021" stroke-linecap="square"/>
<path opacity="0.5" d="M982.954 555.034L907.342 630.646" stroke="#FFF000" stroke-width="1.35021" stroke-linecap="square"/>
<path opacity="0.54" d="M1058.57 555.034L982.954 630.646" stroke="#FFF000" stroke-width="1.35021" stroke-linecap="square"/>
<path opacity="0.57" d="M1058.57 555.034L1134.18 630.646" stroke="#FFF000" stroke-width="1.35021" stroke-linecap="square"/>
<path opacity="0.61" d="M1134.18 555.034L1209.79 630.646" stroke="#FFF000" stroke-width="1.35021" stroke-linecap="square"/>
<path opacity="0.65" d="M1285.4 555.034L1209.79 630.646" stroke="#FFF000" stroke-width="1.35021" stroke-linecap="square"/>
<path opacity="0.69" d="M1285.4 555.034L1361.01 630.646" stroke="#FFF000" stroke-width="1.35021" stroke-linecap="square"/>
<path opacity="0.72" d="M1436.62 555.034L1361.01 630.646" stroke="#FFF000" stroke-width="1.35021" stroke-linecap="square"/>
<path opacity="0.76" d="M1436.62 555.034L1512.24 630.646" stroke="#FFF000" stroke-width="1.35021" stroke-linecap="square"/>
<path opacity="0.8" d="M1512.24 555.034L1587.85 630.646" stroke="#FFF000" stroke-width="1.35021" stroke-linecap="square"/>
<path opacity="0.84" d="M1663.46 555.034L1587.85 630.646" stroke="#FFF000" stroke-width="1.35021" stroke-linecap="square"/>
<path opacity="0.87" d="M1739.07 555.034L1663.46 630.646" stroke="#FFF000" stroke-width="1.35021" stroke-linecap="square"/>
<path opacity="0.91" d="M1739.07 555.034L1814.68 630.646" stroke="#FFF000" stroke-width="1.35021" stroke-linecap="square"/>
<path opacity="0.95" d="M1890.3 555.034L1814.68 630.646" stroke="#FFF000" stroke-width="1.35021" stroke-linecap="square"/>
<path opacity="0.99" d="M1965.91 555.034L1890.3 630.646" stroke="#FFF000" stroke-width="1.35021" stroke-linecap="square"/>
<path opacity="0.05" d="M75.6118 630.646L0 706.257" stroke="#FFF000" stroke-width="1.35021" stroke-linecap="square"/>
<path opacity="0.09" d="M75.6118 630.646L151.224 706.257" stroke="#FFF000" stroke-width="1.35021" stroke-linecap="square"/>
<path opacity="0.12" d="M226.835 630.646L151.224 706.257" stroke="#FFF000" stroke-width="1.35021" stroke-linecap="square"/>
<path opacity="0.16" d="M302.447 630.646L226.835 706.257" stroke="#FFF000" stroke-width="1.35021" stroke-linecap="square"/>
<path opacity="0.2" d="M302.447 630.646L378.059 706.257" stroke="#FFF000" stroke-width="1.35021" stroke-linecap="square"/>
<path opacity="0.24" d="M453.671 630.646L378.059 706.257" stroke="#FFF000" stroke-width="1.35021" stroke-linecap="square"/>
<path opacity="0.27" d="M529.283 630.646L453.671 706.257" stroke="#FFF000" stroke-width="1.35021" stroke-linecap="square"/>
<path opacity="0.31" d="M529.283 630.646L604.895 706.257" stroke="#FFF000" stroke-width="1.35021" stroke-linecap="square"/>
<path opacity="0.35" d="M604.895 630.646L680.506 706.257" stroke="#FFF000" stroke-width="1.35021" stroke-linecap="square"/>
<path opacity="0.39" d="M756.118 630.646L680.506 706.257" stroke="#FFF000" stroke-width="1.35021" stroke-linecap="square"/>
<path opacity="0.42" d="M831.73 630.646L756.118 706.257" stroke="#FFF000" stroke-width="1.35021" stroke-linecap="square"/>
<path opacity="0.46" d="M831.73 630.646L907.342 706.257" stroke="#FFF000" stroke-width="1.35021" stroke-linecap="square"/>
<path opacity="0.5" d="M907.342 630.646L982.954 706.257" stroke="#FFF000" stroke-width="1.35021" stroke-linecap="square"/>
<path opacity="0.54" d="M982.954 630.646L1058.57 706.257" stroke="#FFF000" stroke-width="1.35021" stroke-linecap="square"/>
<path opacity="0.57" d="M1058.57 630.646L1134.18 706.257" stroke="#FFF000" stroke-width="1.35021" stroke-linecap="square"/>
<path opacity="0.61" d="M1209.79 630.646L1134.18 706.257" stroke="#FFF000" stroke-width="1.35021" stroke-linecap="square"/>
<path opacity="0.65" d="M1209.79 630.646L1285.4 706.257" stroke="#FFF000" stroke-width="1.35021" stroke-linecap="square"/>
<path opacity="0.69" d="M1361.01 630.646L1285.4 706.257" stroke="#FFF000" stroke-width="1.35021" stroke-linecap="square"/>
<path opacity="0.72" d="M1361.01 630.646L1436.62 706.257" stroke="#FFF000" stroke-width="1.35021" stroke-linecap="square"/>
<path opacity="0.76" d="M1436.62 630.646L1512.24 706.257" stroke="#FFF000" stroke-width="1.35021" stroke-linecap="square"/>
<path opacity="0.8" d="M1512.24 630.646L1587.85 706.257" stroke="#FFF000" stroke-width="1.35021" stroke-linecap="square"/>
<path opacity="0.84" d="M1587.85 630.646L1663.46 706.257" stroke="#FFF000" stroke-width="1.35021" stroke-linecap="square"/>
<path opacity="0.87" d="M1739.07 630.646L1663.46 706.257" stroke="#FFF000" stroke-width="1.35021" stroke-linecap="square"/>
<path opacity="0.91" d="M1814.68 630.646L1739.07 706.257" stroke="#FFF000" stroke-width="1.35021" stroke-linecap="square"/>
<path opacity="0.95" d="M1814.68 630.646L1890.3 706.257" stroke="#FFF000" stroke-width="1.35021" stroke-linecap="square"/>
<path opacity="0.99" d="M1965.91 630.646L1890.3 706.257" stroke="#FFF000" stroke-width="1.35021" stroke-linecap="square"/>
</svg>
